<svg id="visual" viewBox="0 0 2560 360" width="2560" height="360"
     xmlns="http://www.w3.org/2000/svg" version="1.1">
    <path d="M0 19L25.2 28C50.3 37 100.7 55 150.8 57.3C201 59.7 251 46.3 301.2 47.5C351.3 48.7 401.7 64.3 451.8 60.8C502 57.3 552 34.7 602.2 29.3C652.3 24 702.7 36 753 34.8C803.3 33.7 853.7 19.3 903.8 15.7C954 12 1004 19 1054.2 22C1104.3 25 1154.7 24 1204.8 30.7C1255 37.3 1305 51.7 1355.2 51C1405.3 50.3 1455.7 34.7 1505.8 24.5C1556 14.3 1606 9.7 1656.2 7.8C1706.3 6 1756.7 7 1807 10.5C1857.3 14 1907.7 20 1957.8 20.7C2008 21.3 2058 16.7 2108.2 14.8C2158.3 13 2208.7 14 2258.8 25.3C2309 36.7 2359 58.3 2409.2 64.3C2459.3 70.3 2509.7 60.7 2534.8 55.8L2560 51L2560 0L2534.8 0C2509.7 0 2459.3 0 2409.2 0C2359 0 2309 0 2258.8 0C2208.7 0 2158.3 0 2108.2 0C2058 0 2008 0 1957.8 0C1907.7 0 1857.3 0 1807 0C1756.7 0 1706.3 0 1656.2 0C1606 0 1556 0 1505.8 0C1455.7 0 1405.3 0 1355.2 0C1305 0 1255 0 1204.8 0C1154.7 0 1104.3 0 1054.2 0C1004 0 954 0 903.8 0C853.7 0 803.3 0 753 0C702.7 0 652.3 0 602.2 0C552 0 502 0 451.8 0C401.7 0 351.3 0 301.2 0C251 0 201 0 150.8 0C100.7 0 50.3 0 25.2 0L0 0Z"
          fill="#775bbf"></path>
    <path d="M0 41L25.2 51.7C50.3 62.3 100.7 83.7 150.8 83.7C201 83.7 251 62.3 301.2 58.8C351.3 55.3 401.7 69.7 451.8 64.8C502 60 552 36 602.2 31.8C652.3 27.7 702.7 43.3 753 52.8C803.3 62.3 853.7 65.7 903.8 65C954 64.3 1004 59.7 1054.2 56.2C1104.3 52.7 1154.7 50.3 1204.8 58.2C1255 66 1305 84 1355.2 90C1405.3 96 1455.7 90 1505.8 78.5C1556 67 1606 50 1656.2 43.3C1706.3 36.7 1756.7 40.3 1807 44C1857.3 47.7 1907.7 51.3 1957.8 56.8C2008 62.3 2058 69.7 2108.2 73.8C2158.3 78 2208.7 79 2258.8 81.3C2309 83.7 2359 87.3 2409.2 93.3C2459.3 99.3 2509.7 107.7 2534.8 111.8L2560 116L2560 49L2534.8 53.8C2509.7 58.7 2459.3 68.3 2409.2 62.3C2359 56.3 2309 34.7 2258.8 23.3C2208.7 12 2158.3 11 2108.2 12.8C2058 14.7 2008 19.3 1957.8 18.7C1907.7 18 1857.3 12 1807 8.5C1756.7 5 1706.3 4 1656.2 5.8C1606 7.7 1556 12.3 1505.8 22.5C1455.7 32.7 1405.3 48.3 1355.2 49C1305 49.7 1255 35.3 1204.8 28.7C1154.7 22 1104.3 23 1054.2 20C1004 17 954 10 903.8 13.7C853.7 17.3 803.3 31.7 753 32.8C702.7 34 652.3 22 602.2 27.3C552 32.7 502 55.3 451.8 58.8C401.7 62.3 351.3 46.7 301.2 45.5C251 44.3 201 57.7 150.8 55.3C100.7 53 50.3 35 25.2 26L0 17Z"
          fill="#6547b5"></path>
    <path d="M0 66L25.2 78C50.3 90 100.7 114 150.8 131.3C201 148.7 251 159.3 301.2 168.8C351.3 178.3 401.7 186.7 451.8 190.8C502 195 552 195 602.2 184.8C652.3 174.7 702.7 154.3 753 140.7C803.3 127 853.7 120 903.8 147C954 174 1004 235 1054.2 233.2C1104.3 231.3 1154.7 166.7 1204.8 137.8C1255 109 1305 116 1355.2 124.3C1405.3 132.7 1455.7 142.3 1505.8 148.3C1556 154.3 1606 156.7 1656.2 166.8C1706.3 177 1756.7 195 1807 199.3C1857.3 203.7 1907.7 194.3 1957.8 190.2C2008 186 2058 187 2108.2 181.5C2158.3 176 2208.7 164 2258.8 150.2C2309 136.3 2359 120.7 2409.2 118.8C2459.3 117 2509.7 129 2534.8 135L2560 141L2560 114L2534.8 109.8C2509.7 105.7 2459.3 97.3 2409.2 91.3C2359 85.3 2309 81.7 2258.8 79.3C2208.7 77 2158.3 76 2108.2 71.8C2058 67.7 2008 60.3 1957.8 54.8C1907.7 49.3 1857.3 45.7 1807 42C1756.7 38.3 1706.3 34.7 1656.2 41.3C1606 48 1556 65 1505.8 76.5C1455.7 88 1405.3 94 1355.2 88C1305 82 1255 64 1204.8 56.2C1154.7 48.3 1104.3 50.7 1054.2 54.2C1004 57.7 954 62.3 903.8 63C853.7 63.7 803.3 60.3 753 50.8C702.7 41.3 652.3 25.7 602.2 29.8C552 34 502 58 451.8 62.8C401.7 67.7 351.3 53.3 301.2 56.8C251 60.3 201 81.7 150.8 81.7C100.7 81.7 50.3 60.3 25.2 49.7L0 39Z"
          fill="#5233aa"></path>
    <path d="M0 109L25.2 125.8C50.3 142.7 100.7 176.3 150.8 192.5C201 208.7 251 207.3 301.2 206.7C351.3 206 401.7 206 451.8 205.5C502 205 552 204 602.2 205.2C652.3 206.3 702.7 209.7 753 207.8C803.3 206 853.7 199 903.8 216.5C954 234 1004 276 1054.2 271.2C1104.3 266.3 1154.7 214.7 1204.8 187C1255 159.3 1305 155.7 1355.2 156.8C1405.3 158 1455.7 164 1505.8 180.8C1556 197.7 1606 225.3 1656.2 240.3C1706.3 255.3 1756.7 257.7 1807 252.3C1857.3 247 1907.7 234 1957.8 228C2008 222 2058 223 2108.2 220C2158.3 217 2208.7 210 2258.8 191.5C2309 173 2359 143 2409.2 137C2459.3 131 2509.7 149 2534.8 158L2560 167L2560 139L2534.8 133C2509.7 127 2459.3 115 2409.2 116.8C2359 118.7 2309 134.3 2258.8 148.2C2208.7 162 2158.3 174 2108.2 179.5C2058 185 2008 184 1957.8 188.2C1907.7 192.3 1857.3 201.7 1807 197.3C1756.7 193 1706.3 175 1656.2 164.8C1606 154.7 1556 152.3 1505.8 146.3C1455.7 140.3 1405.3 130.7 1355.2 122.3C1305 114 1255 107 1204.8 135.8C1154.7 164.7 1104.3 229.3 1054.2 231.2C1004 233 954 172 903.8 145C853.7 118 803.3 125 753 138.7C702.7 152.3 652.3 172.7 602.2 182.8C552 193 502 193 451.8 188.8C401.7 184.7 351.3 176.3 301.2 166.8C251 157.3 201 146.7 150.8 129.3C100.7 112 50.3 88 25.2 76L0 64Z"
          fill="#43279c"></path>
    <path d="M0 257L25.2 269.5C50.3 282 100.7 307 150.8 315.3C201 323.7 251 315.3 301.2 310C351.3 304.7 401.7 302.3 451.8 310.2C502 318 552 336 602.2 331.2C652.3 326.3 702.7 298.7 753 284.2C803.3 269.7 853.7 268.3 903.8 280.3C954 292.3 1004 317.7 1054.2 323.2C1104.3 328.7 1154.7 314.3 1204.8 305.3C1255 296.3 1305 292.7 1355.2 290.2C1405.3 287.7 1455.7 286.3 1505.8 294.2C1556 302 1606 319 1656.2 330.5C1706.3 342 1756.7 348 1807 339.5C1857.3 331 1907.7 308 1957.8 291.2C2008 274.3 2058 263.7 2108.2 264.3C2158.3 265 2208.7 277 2258.8 278.8C2309 280.7 2359 272.3 2409.2 269.3C2459.3 266.3 2509.7 268.7 2534.8 269.8L2560 271L2560 165L2534.8 156C2509.7 147 2459.3 129 2409.2 135C2359 141 2309 171 2258.8 189.5C2208.7 208 2158.3 215 2108.2 218C2058 221 2008 220 1957.8 226C1907.7 232 1857.3 245 1807 250.3C1756.7 255.7 1706.3 253.3 1656.2 238.3C1606 223.3 1556 195.7 1505.8 178.8C1455.7 162 1405.3 156 1355.2 154.8C1305 153.7 1255 157.3 1204.8 185C1154.7 212.7 1104.3 264.3 1054.2 269.2C1004 274 954 232 903.8 214.5C853.7 197 803.3 204 753 205.8C702.7 207.7 652.3 204.3 602.2 203.2C552 202 502 203 451.8 203.5C401.7 204 351.3 204 301.2 204.7C251 205.3 201 206.7 150.8 190.5C100.7 174.3 50.3 140.7 25.2 123.8L0 107Z"
          fill="#3a238b"></path>
    <path d="M0 361L25.2 361C50.3 361 100.7 361 150.8 361C201 361 251 361 301.2 361C351.3 361 401.7 361 451.8 361C502 361 552 361 602.2 361C652.3 361 702.7 361 753 361C803.3 361 853.7 361 903.8 361C954 361 1004 361 1054.2 361C1104.3 361 1154.7 361 1204.8 361C1255 361 1305 361 1355.2 361C1405.3 361 1455.7 361 1505.8 361C1556 361 1606 361 1656.2 361C1706.3 361 1756.7 361 1807 361C1857.3 361 1907.7 361 1957.8 361C2008 361 2058 361 2108.2 361C2158.3 361 2208.7 361 2258.8 361C2309 361 2359 361 2409.2 361C2459.3 361 2509.7 361 2534.8 361L2560 361L2560 269L2534.8 267.8C2509.7 266.7 2459.3 264.3 2409.2 267.3C2359 270.3 2309 278.7 2258.8 276.8C2208.7 275 2158.3 263 2108.2 262.3C2058 261.7 2008 272.3 1957.8 289.2C1907.7 306 1857.3 329 1807 337.5C1756.7 346 1706.3 340 1656.2 328.5C1606 317 1556 300 1505.8 292.2C1455.7 284.3 1405.3 285.7 1355.2 288.2C1305 290.7 1255 294.3 1204.8 303.3C1154.7 312.3 1104.3 326.7 1054.2 321.2C1004 315.7 954 290.3 903.8 278.3C853.7 266.3 803.3 267.7 753 282.2C702.7 296.7 652.3 324.3 602.2 329.2C552 334 502 316 451.8 308.2C401.7 300.3 351.3 302.7 301.2 308C251 313.3 201 321.7 150.8 313.3C100.7 305 50.3 280 25.2 267.5L0 255Z"
          fill="#31207a"></path>
</svg>
